<?xml version="1.0" encoding="UTF-8" standalone="no"?>
<!DOCTYPE svg PUBLIC "-//W3C//DTD SVG 1.1//EN" "http://www.w3.org/Graphics/SVG/1.1/DTD/svg11.dtd">
<svg width="100%" height="100%" viewBox="0 0 900 300" version="1.1" xmlns="http://www.w3.org/2000/svg" xmlns:xlink="http://www.w3.org/1999/xlink" xml:space="preserve" xmlns:serif="http://www.serif.com/" style="fill-rule:evenodd;clip-rule:evenodd;stroke-linejoin:round;stroke-miterlimit:2;">
    <path d="M900,30.882L900,269.118C900,286.162 886.162,300 869.118,300L30.882,300C13.838,300 0,286.162 0,269.118L0,30.882C0,13.838 13.838,0 30.882,0L869.118,0C886.162,0 900,13.838 900,30.882Z" style="fill:url(#_Linear1);"/>
    <g transform="matrix(0.760456,0,0,0.760456,24.228204,88.360432)">
        <g transform="matrix(109.5834,0,0,109.5834,34.605,91.572184)">
            <path d="M0.316,-0.865C0.327,-0.852 0.339,-0.838 0.35,-0.824C0.361,-0.81 0.372,-0.796 0.383,-0.782C0.41,-0.747 0.43,-0.721 0.442,-0.704L0.304,-0.635C0.297,-0.645 0.286,-0.66 0.273,-0.68C0.258,-0.701 0.244,-0.721 0.229,-0.743C0.214,-0.764 0.2,-0.782 0.187,-0.798L0.316,-0.865ZM0.922,-0.428L0.922,-0.282L0.067,-0.282L0.067,-0.428L0.922,-0.428ZM0.883,-0.676L0.883,-0.534L0.107,-0.534L0.107,-0.676L0.883,-0.676ZM0.487,-0.627C0.513,-0.657 0.544,-0.696 0.579,-0.744C0.614,-0.792 0.642,-0.832 0.662,-0.865L0.805,-0.794C0.784,-0.766 0.757,-0.731 0.725,-0.69C0.692,-0.649 0.664,-0.615 0.641,-0.588L0.487,-0.627ZM0.046,-0.063C0.149,-0.096 0.227,-0.13 0.282,-0.167C0.336,-0.204 0.372,-0.24 0.39,-0.276C0.408,-0.312 0.417,-0.351 0.417,-0.393L0.417,-0.604L0.57,-0.604L0.57,-0.401C0.569,-0.29 0.531,-0.193 0.456,-0.111C0.38,-0.029 0.269,0.034 0.123,0.079L0.046,-0.063ZM0.551,-0.398C0.565,-0.315 0.605,-0.247 0.669,-0.194C0.735,-0.14 0.827,-0.101 0.947,-0.074L0.875,0.074C0.759,0.043 0.664,-0.004 0.589,-0.066C0.514,-0.127 0.462,-0.205 0.435,-0.299L0.551,-0.398Z" style="fill-rule:nonzero;"/>
        </g>
        <g transform="matrix(109.5834,0,0,109.5834,144.1884,91.572184)">
            <path d="M0.864,-0.807L0.864,-0.663L0.134,-0.663L0.134,-0.807L0.864,-0.807ZM0.934,-0.478L0.934,-0.336L0.063,-0.336L0.063,-0.478L0.934,-0.478ZM0.381,-0.086C0.398,-0.086 0.411,-0.087 0.418,-0.09C0.426,-0.093 0.431,-0.097 0.433,-0.104C0.436,-0.11 0.437,-0.12 0.437,-0.133L0.437,-0.727L0.599,-0.727L0.599,-0.08C0.599,-0.042 0.593,-0.012 0.582,0.009C0.571,0.03 0.552,0.046 0.526,0.056C0.501,0.065 0.466,0.07 0.422,0.07L0.259,0.07L0.228,-0.086L0.381,-0.086Z" style="fill-rule:nonzero;"/>
        </g>
        <g transform="matrix(109.5834,0,0,109.5834,253.7718,91.572184)">
        </g>
        <g transform="matrix(109.5834,0,0,109.5834,286.64682,91.572184)">
            <path d="M0.008,0.02L0.306,-0.77L0.496,-0.77L0.794,0.02L0.597,0.02L0.404,-0.528L0.398,-0.528L0.205,0.02L0.008,0.02ZM0.583,-0.317L0.629,-0.143L0.184,-0.143L0.228,-0.317L0.583,-0.317Z" style="fill-rule:nonzero;"/>
        </g>
        <g transform="matrix(109.5834,0,0,109.5834,374.532707,91.572184)">
            <rect x="0.064" y="-0.77" width="0.186" height="0.79" style="fill-rule:nonzero;"/>
        </g>
        <g transform="matrix(109.5834,0,0,109.5834,408.941895,91.572184)">
            <path d="M0.008,-0.77L0.202,-0.77L0.328,-0.245L0.334,-0.245L0.48,-0.77L0.68,-0.77L0.836,-0.245L0.842,-0.245L0.968,-0.77L1.162,-0.77L0.942,0.02L0.752,0.02L0.583,-0.499L0.577,-0.499L0.408,0.02L0.218,0.02L0.008,-0.77Z" style="fill-rule:nonzero;"/>
        </g>
        <g transform="matrix(109.5834,0,0,109.5834,537.154473,91.572184)">
            <path d="M0.064,0.02L0.064,-0.77L0.405,-0.77C0.489,-0.77 0.554,-0.752 0.599,-0.715C0.644,-0.678 0.667,-0.624 0.667,-0.553C0.667,-0.513 0.658,-0.479 0.641,-0.453C0.624,-0.425 0.602,-0.406 0.573,-0.394L0.573,-0.388C0.614,-0.376 0.647,-0.355 0.67,-0.325C0.693,-0.295 0.705,-0.255 0.705,-0.206C0.705,-0.136 0.681,-0.081 0.634,-0.041C0.586,-0 0.519,0.02 0.432,0.02L0.064,0.02ZM0.412,-0.148C0.442,-0.148 0.467,-0.154 0.486,-0.168C0.505,-0.18 0.515,-0.199 0.515,-0.224C0.515,-0.247 0.505,-0.265 0.486,-0.278C0.467,-0.29 0.442,-0.296 0.411,-0.296L0.224,-0.296L0.224,-0.464L0.382,-0.464C0.412,-0.464 0.435,-0.47 0.452,-0.482C0.468,-0.495 0.476,-0.513 0.476,-0.537C0.476,-0.559 0.468,-0.575 0.452,-0.586C0.436,-0.597 0.413,-0.602 0.383,-0.602L0.25,-0.602L0.25,-0.148L0.412,-0.148Z" style="fill-rule:nonzero;"/>
        </g>
        <g transform="matrix(109.5834,0,0,109.5834,619.013273,91.572184)">
        </g>
    </g>
    <g transform="matrix(1.188528,0,0,1.188528,13.402565,-39.242858)">
        <g transform="matrix(33.333333,0,0,33.333333,34.206794,212.655898)">
            <path d="M0.008,-0L0.25,-0.716L0.361,-0.716L0.601,-0L0.486,-0L0.327,-0.501L0.305,-0.574L0.303,-0.574L0.281,-0.501L0.121,-0L0.008,-0ZM0.119,-0.178L0.148,-0.265L0.448,-0.265L0.478,-0.178L0.119,-0.178Z" style="fill:rgb(34,34,34);fill-rule:nonzero;"/>
        </g>
        <g transform="matrix(33.333333,0,0,33.333333,54.490127,212.655898)">
            <path d="M0.312,0.015C0.278,0.015 0.247,0.007 0.219,-0.008C0.191,-0.022 0.169,-0.042 0.154,-0.067L0.116,-0.067L0.152,-0.103L0.152,-0L0.053,-0L0.053,-0.716L0.157,-0.716L0.157,-0.449L0.159,-0.448C0.174,-0.473 0.195,-0.492 0.222,-0.506C0.25,-0.521 0.28,-0.528 0.313,-0.528C0.375,-0.528 0.426,-0.505 0.467,-0.461C0.508,-0.416 0.529,-0.356 0.529,-0.28L0.529,-0.236C0.529,-0.161 0.508,-0.101 0.467,-0.055C0.426,-0.008 0.374,0.015 0.312,0.015ZM0.289,-0.078C0.328,-0.078 0.36,-0.093 0.386,-0.122C0.412,-0.15 0.425,-0.189 0.425,-0.236L0.425,-0.279C0.425,-0.327 0.412,-0.365 0.386,-0.393C0.36,-0.421 0.328,-0.435 0.29,-0.435C0.251,-0.435 0.219,-0.421 0.193,-0.393C0.167,-0.365 0.154,-0.327 0.154,-0.279L0.154,-0.236C0.154,-0.189 0.167,-0.151 0.193,-0.122C0.218,-0.093 0.251,-0.078 0.289,-0.078Z" style="fill:rgb(34,34,34);fill-rule:nonzero;"/>
        </g>
        <g transform="matrix(33.333333,0,0,33.333333,73.040127,212.655898)">
            <path d="M0.274,0.015C0.203,0.015 0.145,-0.009 0.099,-0.056C0.054,-0.103 0.031,-0.163 0.031,-0.236L0.031,-0.278C0.031,-0.352 0.054,-0.412 0.1,-0.459C0.146,-0.505 0.204,-0.528 0.274,-0.528C0.345,-0.528 0.403,-0.505 0.449,-0.458C0.495,-0.411 0.518,-0.352 0.518,-0.278L0.518,-0.236C0.518,-0.163 0.495,-0.103 0.449,-0.056C0.403,-0.009 0.345,0.015 0.274,0.015ZM0.274,-0.079C0.314,-0.079 0.347,-0.093 0.374,-0.121C0.401,-0.15 0.414,-0.188 0.414,-0.234L0.414,-0.28C0.414,-0.327 0.401,-0.365 0.374,-0.393C0.346,-0.421 0.313,-0.435 0.274,-0.435C0.235,-0.435 0.201,-0.421 0.174,-0.392C0.148,-0.364 0.134,-0.327 0.134,-0.28L0.134,-0.234C0.134,-0.188 0.148,-0.15 0.174,-0.121C0.201,-0.093 0.234,-0.079 0.274,-0.079Z" style="fill:rgb(34,34,34);fill-rule:nonzero;"/>
        </g>
        <g transform="matrix(33.333333,0,0,33.333333,91.32346,212.655898)">
            <path d="M0.215,0.015C0.162,0.015 0.12,-0.001 0.09,-0.034C0.06,-0.066 0.045,-0.111 0.045,-0.169L0.045,-0.514L0.15,-0.514L0.15,-0.188C0.15,-0.151 0.158,-0.123 0.175,-0.104C0.191,-0.084 0.215,-0.074 0.247,-0.074C0.28,-0.074 0.308,-0.087 0.33,-0.112C0.352,-0.137 0.363,-0.168 0.363,-0.204L0.363,-0.514L0.467,-0.514L0.467,-0L0.368,-0L0.368,-0.104L0.406,-0.067L0.366,-0.067C0.352,-0.043 0.332,-0.023 0.305,-0.008C0.278,0.007 0.248,0.015 0.215,0.015Z" style="fill:rgb(34,34,34);fill-rule:nonzero;"/>
        </g>
        <g transform="matrix(33.333333,0,0,33.333333,108.556794,212.655898)">
            <path d="M0.229,0.015C0.187,0.015 0.153,0.002 0.127,-0.023C0.101,-0.048 0.089,-0.084 0.089,-0.131L0.089,-0.654L0.193,-0.654L0.193,-0.148C0.193,-0.123 0.198,-0.105 0.208,-0.093C0.218,-0.082 0.233,-0.076 0.252,-0.076C0.261,-0.076 0.269,-0.077 0.277,-0.078C0.285,-0.08 0.292,-0.082 0.298,-0.085C0.305,-0.088 0.308,-0.089 0.308,-0.089L0.308,0.001C0.308,0.001 0.305,0.002 0.297,0.004C0.29,0.007 0.28,0.009 0.267,0.011C0.255,0.014 0.242,0.015 0.229,0.015ZM0.012,-0.426L0.012,-0.514L0.307,-0.514L0.307,-0.426L0.012,-0.426Z" style="fill:rgb(34,34,34);fill-rule:nonzero;"/>
        </g>
        <g transform="matrix(33.333333,0,0,33.333333,119.57346,212.655898)">
        </g>
        <g transform="matrix(33.333333,0,0,33.333333,126.540127,212.655898)">
            <path d="M0.008,-0L0.25,-0.716L0.361,-0.716L0.601,-0L0.486,-0L0.327,-0.501L0.305,-0.574L0.303,-0.574L0.281,-0.501L0.121,-0L0.008,-0ZM0.119,-0.178L0.148,-0.265L0.448,-0.265L0.478,-0.178L0.119,-0.178Z" style="fill:rgb(34,34,34);fill-rule:nonzero;"/>
        </g>
        <g transform="matrix(33.333333,0,0,33.333333,145.006794,212.655898)">
            <path d="M0.15,0.001L0.001,-0.514C0.001,-0.514 0.106,-0.514 0.106,-0.514L0.192,-0.183L0.204,-0.136L0.206,-0.136L0.218,-0.181L0.311,-0.514C0.311,-0.514 0.311,-0.514 0.311,-0.514L0.409,-0.514L0.502,-0.183L0.514,-0.137L0.516,-0.137L0.527,-0.182L0.615,-0.514L0.615,-0.514L0.716,-0.514L0.565,0.001L0.466,0.001L0.367,-0.344L0.358,-0.381L0.356,-0.381L0.346,-0.344C0.346,-0.344 0.249,0.001 0.249,0.001L0.15,0.001Z" style="fill:rgb(34,34,34);fill-rule:nonzero;"/>
        </g>
        <g transform="matrix(33.333333,0,0,33.333333,168.32346,212.655898)">
            <path d="M0.267,0.015C0.197,0.015 0.14,-0.009 0.095,-0.055C0.051,-0.102 0.028,-0.162 0.028,-0.237L0.028,-0.278C0.028,-0.35 0.05,-0.41 0.094,-0.457C0.138,-0.505 0.195,-0.528 0.264,-0.528C0.332,-0.528 0.387,-0.507 0.429,-0.465C0.47,-0.423 0.491,-0.37 0.491,-0.305L0.491,-0.235L0.082,-0.235L0.082,-0.307L0.389,-0.307L0.389,-0.322C0.387,-0.356 0.375,-0.384 0.352,-0.405C0.33,-0.427 0.3,-0.438 0.263,-0.438C0.224,-0.438 0.192,-0.424 0.168,-0.395C0.143,-0.367 0.13,-0.328 0.13,-0.28L0.13,-0.237C0.13,-0.187 0.144,-0.147 0.171,-0.118C0.199,-0.089 0.233,-0.074 0.274,-0.074C0.294,-0.074 0.312,-0.077 0.326,-0.083C0.341,-0.089 0.354,-0.097 0.365,-0.108C0.377,-0.119 0.39,-0.136 0.404,-0.16L0.482,-0.118C0.465,-0.084 0.446,-0.058 0.426,-0.04C0.407,-0.022 0.384,-0.008 0.359,0.001C0.333,0.01 0.303,0.015 0.267,0.015Z" style="fill:rgb(34,34,34);fill-rule:nonzero;"/>
        </g>
        <g transform="matrix(33.333333,0,0,33.333333,185.606794,212.655898)">
            <path d="M0.22,0.015C0.189,0.015 0.161,0.01 0.136,0.002C0.112,-0.006 0.091,-0.018 0.072,-0.034C0.053,-0.05 0.039,-0.068 0.03,-0.087C0.02,-0.106 0.016,-0.116 0.016,-0.116L0.097,-0.159C0.097,-0.159 0.1,-0.152 0.108,-0.139C0.115,-0.126 0.124,-0.114 0.135,-0.103C0.147,-0.093 0.16,-0.085 0.174,-0.079C0.188,-0.074 0.205,-0.071 0.225,-0.071C0.252,-0.071 0.274,-0.077 0.289,-0.088C0.305,-0.099 0.313,-0.115 0.313,-0.137L0.313,-0.137C0.313,-0.157 0.306,-0.172 0.292,-0.183C0.279,-0.194 0.248,-0.207 0.201,-0.221C0.142,-0.238 0.099,-0.259 0.072,-0.284C0.046,-0.31 0.033,-0.342 0.033,-0.382L0.033,-0.383C0.033,-0.427 0.05,-0.462 0.086,-0.488C0.121,-0.515 0.165,-0.528 0.217,-0.528C0.246,-0.528 0.271,-0.524 0.293,-0.517C0.314,-0.51 0.334,-0.5 0.351,-0.486C0.368,-0.473 0.381,-0.459 0.39,-0.443C0.398,-0.427 0.403,-0.419 0.403,-0.419L0.324,-0.376C0.324,-0.376 0.321,-0.381 0.315,-0.392C0.309,-0.402 0.301,-0.411 0.291,-0.419C0.28,-0.427 0.269,-0.433 0.257,-0.437C0.245,-0.441 0.231,-0.442 0.216,-0.442C0.191,-0.442 0.171,-0.437 0.156,-0.426C0.141,-0.415 0.133,-0.402 0.133,-0.386L0.133,-0.386C0.133,-0.367 0.14,-0.353 0.153,-0.341C0.166,-0.33 0.198,-0.317 0.247,-0.301C0.308,-0.284 0.351,-0.262 0.376,-0.237C0.401,-0.212 0.414,-0.181 0.414,-0.143L0.414,-0.143C0.414,-0.095 0.396,-0.057 0.36,-0.028C0.324,0 0.278,0.015 0.22,0.015Z" style="fill:rgb(34,34,34);fill-rule:nonzero;"/>
        </g>
        <g transform="matrix(33.333333,0,0,33.333333,200.040127,212.655898)">
            <path d="M0.274,0.015C0.203,0.015 0.145,-0.009 0.099,-0.056C0.054,-0.103 0.031,-0.163 0.031,-0.236L0.031,-0.278C0.031,-0.352 0.054,-0.412 0.1,-0.459C0.146,-0.505 0.204,-0.528 0.274,-0.528C0.345,-0.528 0.403,-0.505 0.449,-0.458C0.495,-0.411 0.518,-0.352 0.518,-0.278L0.518,-0.236C0.518,-0.163 0.495,-0.103 0.449,-0.056C0.403,-0.009 0.345,0.015 0.274,0.015ZM0.274,-0.079C0.314,-0.079 0.347,-0.093 0.374,-0.121C0.401,-0.15 0.414,-0.188 0.414,-0.234L0.414,-0.28C0.414,-0.327 0.401,-0.365 0.374,-0.393C0.346,-0.421 0.313,-0.435 0.274,-0.435C0.235,-0.435 0.201,-0.421 0.174,-0.392C0.148,-0.364 0.134,-0.327 0.134,-0.28L0.134,-0.234C0.134,-0.188 0.148,-0.15 0.174,-0.121C0.201,-0.093 0.234,-0.079 0.274,-0.079Z" style="fill:rgb(34,34,34);fill-rule:nonzero;"/>
        </g>
        <g transform="matrix(33.333333,0,0,33.333333,218.32346,212.655898)">
            <path d="M0.049,-0L0.049,-0.514L0.149,-0.514L0.149,-0.433L0.14,-0.443L0.152,-0.443C0.165,-0.468 0.185,-0.489 0.212,-0.504C0.239,-0.52 0.268,-0.528 0.299,-0.528C0.333,-0.528 0.362,-0.52 0.387,-0.504C0.413,-0.488 0.431,-0.466 0.441,-0.438C0.458,-0.467 0.481,-0.49 0.508,-0.505C0.535,-0.52 0.566,-0.528 0.599,-0.528C0.652,-0.528 0.692,-0.512 0.72,-0.48C0.748,-0.448 0.762,-0.403 0.762,-0.346L0.762,-0L0.658,-0L0.658,-0.327C0.658,-0.363 0.65,-0.391 0.635,-0.409C0.62,-0.427 0.597,-0.436 0.566,-0.436C0.536,-0.436 0.51,-0.424 0.489,-0.399C0.468,-0.375 0.458,-0.344 0.458,-0.308L0.458,-0L0.353,-0L0.353,-0.326C0.353,-0.363 0.346,-0.39 0.33,-0.408C0.315,-0.427 0.292,-0.436 0.262,-0.436C0.231,-0.436 0.206,-0.424 0.185,-0.399C0.164,-0.374 0.154,-0.343 0.154,-0.307L0.154,-0L0.049,-0Z" style="fill:rgb(34,34,34);fill-rule:nonzero;"/>
        </g>
        <g transform="matrix(33.333333,0,0,33.333333,245.206794,212.655898)">
            <path d="M0.267,0.015C0.197,0.015 0.14,-0.009 0.095,-0.055C0.051,-0.102 0.028,-0.162 0.028,-0.237L0.028,-0.278C0.028,-0.35 0.05,-0.41 0.094,-0.457C0.138,-0.505 0.195,-0.528 0.264,-0.528C0.332,-0.528 0.387,-0.507 0.429,-0.465C0.47,-0.423 0.491,-0.37 0.491,-0.305L0.491,-0.235L0.082,-0.235L0.082,-0.307L0.389,-0.307L0.389,-0.322C0.387,-0.356 0.375,-0.384 0.352,-0.405C0.33,-0.427 0.3,-0.438 0.263,-0.438C0.224,-0.438 0.192,-0.424 0.168,-0.395C0.143,-0.367 0.13,-0.328 0.13,-0.28L0.13,-0.237C0.13,-0.187 0.144,-0.147 0.171,-0.118C0.199,-0.089 0.233,-0.074 0.274,-0.074C0.294,-0.074 0.312,-0.077 0.326,-0.083C0.341,-0.089 0.354,-0.097 0.365,-0.108C0.377,-0.119 0.39,-0.136 0.404,-0.16L0.482,-0.118C0.465,-0.084 0.446,-0.058 0.426,-0.04C0.407,-0.022 0.384,-0.008 0.359,0.001C0.333,0.01 0.303,0.015 0.267,0.015Z" style="fill:rgb(34,34,34);fill-rule:nonzero;"/>
        </g>
        <g transform="matrix(33.333333,0,0,33.333333,262.490127,212.655898)">
        </g>
        <g transform="matrix(33.333333,0,0,33.333333,269.456794,212.655898)">
            <rect x="0.061" y="-0.716" width="0.107" height="0.716" style="fill:rgb(34,34,34);fill-rule:nonzero;"/>
        </g>
        <g transform="matrix(33.333333,0,0,33.333333,277.090127,212.655898)">
            <path d="M0.183,0.001L0.008,-0.716L0.119,-0.716L0.229,-0.235L0.239,-0.183L0.242,-0.183L0.254,-0.235L0.388,-0.716L0.487,-0.716L0.616,-0.235L0.628,-0.183L0.631,-0.183L0.641,-0.235L0.75,-0.716L0.86,-0.716L0.685,0.001L0.582,0.001L0.45,-0.49L0.437,-0.544L0.434,-0.544L0.421,-0.49L0.285,0.001L0.183,0.001Z" style="fill:rgb(34,34,34);fill-rule:nonzero;"/>
        </g>
        <g transform="matrix(33.333333,0,0,33.333333,305.97346,212.655898)">
            <path d="M0.065,-0L0.065,-0.716L0.317,-0.716C0.372,-0.716 0.418,-0.699 0.455,-0.666C0.491,-0.633 0.51,-0.59 0.51,-0.538L0.51,-0.518C0.51,-0.483 0.501,-0.453 0.484,-0.427C0.466,-0.402 0.443,-0.384 0.413,-0.372L0.413,-0.369C0.449,-0.359 0.478,-0.34 0.5,-0.312C0.522,-0.284 0.533,-0.251 0.533,-0.213L0.533,-0.195C0.533,-0.138 0.514,-0.092 0.475,-0.055C0.437,-0.018 0.389,-0 0.331,-0L0.065,-0ZM0.172,-0.094L0.32,-0.094C0.35,-0.094 0.375,-0.104 0.395,-0.124C0.415,-0.144 0.425,-0.17 0.425,-0.2L0.425,-0.218C0.425,-0.248 0.415,-0.273 0.394,-0.292C0.373,-0.312 0.348,-0.321 0.318,-0.321L0.135,-0.321L0.135,-0.409L0.305,-0.409C0.334,-0.409 0.358,-0.419 0.377,-0.437C0.396,-0.456 0.405,-0.48 0.405,-0.508L0.405,-0.525C0.405,-0.553 0.396,-0.576 0.377,-0.594C0.359,-0.612 0.335,-0.622 0.307,-0.622L0.172,-0.622L0.172,-0.094Z" style="fill:rgb(34,34,34);fill-rule:nonzero;"/>
        </g>
        <g transform="matrix(33.333333,0,0,33.333333,324.72346,212.655898)">
        </g>
    </g>
    <g transform="matrix(6.98884,0,0,6.98884,668.323079,66.133897)">
        <path d="M11,17L13,17L13,11L11,11L11,17ZM12.713,8.713C12.904,8.521 13,8.283 13,8C13,7.717 12.904,7.479 12.712,7.288C12.52,7.097 12.283,7.001 12,7C11.717,6.999 11.48,7.095 11.288,7.288C11.096,7.481 11,7.718 11,8C11,8.282 11.096,8.52 11.288,8.713C11.48,8.906 11.717,9.002 12,9C12.283,8.998 12.52,8.902 12.713,8.712M12,22C10.617,22 9.317,21.737 8.1,21.212C6.883,20.687 5.825,19.974 4.925,19.075C4.025,18.176 3.313,17.117 2.788,15.9C2.263,14.683 2.001,13.383 2,12C1.999,10.617 2.262,9.317 2.788,8.1C3.314,6.883 4.026,5.824 4.925,4.925C5.824,4.026 6.882,3.313 8.1,2.788C9.318,2.263 10.618,2 12,2C13.382,2 14.682,2.263 15.9,2.788C17.118,3.313 18.176,4.026 19.075,4.925C19.974,5.824 20.686,6.883 21.213,8.1C21.74,9.317 22.002,10.617 22,12C21.998,13.383 21.735,14.683 21.212,15.9C20.689,17.117 19.976,18.176 19.075,19.075C18.174,19.974 17.115,20.687 15.9,21.213C14.685,21.739 13.385,22.001 12,22" style="fill:rgb(34,34,34);fill-rule:nonzero;"/>
    </g>
    <defs>
        <linearGradient id="_Linear1" x1="0" y1="0" x2="1" y2="0" gradientUnits="userSpaceOnUse" gradientTransform="matrix(900,0,0,900,0,150)"><stop offset="0" style="stop-color:white;stop-opacity:1"/><stop offset="0.77" style="stop-color:rgb(137,221,184);stop-opacity:1"/><stop offset="1" style="stop-color:rgb(0,170,108);stop-opacity:1"/></linearGradient>
    </defs>
</svg>
